<svg width="193" height="69" viewBox="0 0 193 69" fill="none" xmlns="http://www.w3.org/2000/svg">
<path d="M192.792 52.7273C192.792 56.1279 192.131 58.9965 190.808 61.3332C189.486 63.6599 187.701 65.4248 185.454 66.6279C183.207 67.8211 180.701 68.4177 177.937 68.4177C175.153 68.4177 172.637 67.8161 170.39 66.613C168.153 65.3999 166.373 63.63 165.051 61.3033C163.738 58.9667 163.082 56.108 163.082 52.7273C163.082 49.3268 163.738 46.4631 165.051 44.1364C166.373 41.7998 168.153 40.0349 170.39 38.8417C172.637 37.6385 175.153 37.037 177.937 37.037C180.701 37.037 183.207 37.6385 185.454 38.8417C187.701 40.0349 189.486 41.7998 190.808 44.1364C192.131 46.4631 192.792 49.3268 192.792 52.7273ZM184.261 52.7273C184.261 50.8978 184.017 49.3566 183.53 48.1037C183.053 46.841 182.342 45.8864 181.397 45.2401C180.462 44.5839 179.309 44.2557 177.937 44.2557C176.565 44.2557 175.406 44.5839 174.462 45.2401C173.527 45.8864 172.816 46.841 172.329 48.1037C171.852 49.3566 171.613 50.8978 171.613 52.7273C171.613 54.5569 171.852 56.103 172.329 57.3658C172.816 58.6187 173.527 59.5732 174.462 60.2295C175.406 60.8758 176.565 61.1989 177.937 61.1989C179.309 61.1989 180.462 60.8758 181.397 60.2295C182.342 59.5732 183.053 58.6187 183.53 57.3658C184.017 56.103 184.261 54.5569 184.261 52.7273Z" fill="black"/>
<path d="M159.279 37.4546V68H152.358L141.321 51.9518H141.142V68H132.85V37.4546H139.889L150.747 53.4432H150.986V37.4546H159.279Z" fill="black"/>
<path d="M107.357 68H98.4077L108.49 37.4546H119.825L129.908 68H120.959L114.277 45.8665H114.038L107.357 68ZM105.686 55.9489H122.51V62.1535H105.686V55.9489Z" fill="black"/>
<path d="M69.1709 37.4546H78.4181L84.384 49.8637H84.6226L90.5885 37.4546H99.8357L88.6198 58.3949V68H80.3868V58.3949L69.1709 37.4546Z" fill="black"/>
<path d="M68.7198 52.7273C68.7198 56.1279 68.0585 58.9965 66.7361 61.3332C65.4136 63.6599 63.6288 65.4248 61.3817 66.6279C59.1345 67.8211 56.6288 68.4177 53.8646 68.4177C51.0805 68.4177 48.5649 67.8161 46.3178 66.613C44.0805 65.3999 42.3007 63.63 40.9783 61.3033C39.6658 58.9667 39.0095 56.108 39.0095 52.7273C39.0095 49.3268 39.6658 46.4631 40.9783 44.1364C42.3007 41.7998 44.0805 40.0349 46.3178 38.8417C48.5649 37.6385 51.0805 37.037 53.8646 37.037C56.6288 37.037 59.1345 37.6385 61.3817 38.8417C63.6288 40.0349 65.4136 41.7998 66.7361 44.1364C68.0585 46.4631 68.7198 49.3268 68.7198 52.7273ZM60.1885 52.7273C60.1885 50.8978 59.9449 49.3566 59.4577 48.1037C58.9804 46.841 58.2695 45.8864 57.3249 45.2401C56.3902 44.5839 55.2368 44.2557 53.8646 44.2557C52.4925 44.2557 51.3341 44.5839 50.3895 45.2401C49.4548 45.8864 48.7439 46.841 48.2567 48.1037C47.7794 49.3566 47.5408 50.8978 47.5408 52.7273C47.5408 54.5569 47.7794 56.103 48.2567 57.3658C48.7439 58.6187 49.4548 59.5732 50.3895 60.2295C51.3341 60.8758 52.4925 61.1989 53.8646 61.1989C55.2368 61.1989 56.3902 60.8758 57.3249 60.2295C58.2695 59.5732 58.9804 58.6187 59.4577 57.3658C59.9449 56.103 60.1885 54.5569 60.1885 52.7273Z" fill="black"/>
<path d="M0 37.4546H10.321L17.4205 54.7557H17.7784L24.8778 37.4546H35.1989V68H27.0852V50.341H26.8466L20.0455 67.7614H15.1534L8.35227 50.2216H8.11364V68H0V37.4546Z" fill="black"/>
<path d="M71.0912 11.9091H62.6793C62.6196 11.2131 62.4605 10.5817 62.202 10.015C61.9534 9.44821 61.6054 8.96099 61.158 8.55332C60.7205 8.13571 60.1885 7.81753 59.5621 7.59878C58.9357 7.37008 58.2247 7.25574 57.4293 7.25574C56.0372 7.25574 54.859 7.59381 53.8945 8.26994C52.9399 8.94608 52.2141 9.91554 51.7169 11.1783C51.2297 12.4411 50.9861 13.9574 50.9861 15.7273C50.9861 17.5966 51.2347 19.1627 51.7318 20.4255C52.2389 21.6783 52.9698 22.6229 53.9243 23.2593C54.8788 23.8857 56.0273 24.1989 57.3696 24.1989C58.1352 24.1989 58.8213 24.1045 59.4278 23.9155C60.0344 23.7167 60.5614 23.4333 61.0088 23.0654C61.4563 22.6975 61.8192 22.255 62.0976 21.738C62.3859 21.211 62.5798 20.6194 62.6793 19.9631L71.0912 20.0228C70.9918 21.3154 70.6288 22.6329 70.0024 23.9752C69.376 25.3076 68.4861 26.5405 67.3327 27.6741C66.1892 28.7976 64.7723 29.7025 63.082 30.3885C61.3916 31.0746 59.4278 31.4177 57.1906 31.4177C54.3867 31.4177 51.871 30.8161 49.6438 29.613C47.4264 28.4099 45.6715 26.64 44.3788 24.3033C43.0962 21.9667 42.4548 19.108 42.4548 15.7273C42.4548 12.3268 43.1111 9.46312 44.4236 7.13642C45.7361 4.79977 47.506 3.03486 49.7332 1.84167C51.9605 0.63855 54.4463 0.0369873 57.1906 0.0369873C59.1196 0.0369873 60.8945 0.300481 62.5152 0.827469C64.1359 1.35446 65.5578 2.12506 66.7808 3.13926C68.0038 4.14352 68.9882 5.38145 69.734 6.85304C70.4797 8.32463 70.9321 10.01 71.0912 11.9091Z" fill="black"/>
<path d="M38.6442 0.45459V31H30.3516V0.45459H38.6442Z" fill="black"/>
<path d="M26.429 0.45459V31H19.5085L8.47159 14.9517H8.29261V31H0V0.45459H7.03977L17.8977 16.4432H18.1364V0.45459H26.429Z" fill="black"/>
<path fill-rule="evenodd" clip-rule="evenodd" d="M178.031 7H89.0312C85.1653 7 82.0312 10.134 82.0312 14V18C82.0312 21.866 85.1653 25 89.0312 25H178.031C181.897 25 185.031 21.866 185.031 18V14C185.031 10.134 181.897 7 178.031 7ZM89.0312 0C81.2993 0 75.0312 6.26801 75.0312 14V18C75.0312 25.732 81.2993 32 89.0312 32H178.031C185.763 32 192.031 25.732 192.031 18V14C192.031 6.26801 185.763 0 178.031 0H89.0312Z" fill="black"/>
</svg>
